<svg width="40" height="41" viewBox="0 0 40 41" fill="none" xmlns="http://www.w3.org/2000/svg">
<rect y="0.5" width="40" height="40" rx="8" fill="url(#paint0_linear_2009_5608)"/>
<path d="M22.625 16.125C23.3172 16.125 23.9939 15.9197 24.5695 15.5351C25.1451 15.1506 25.5937 14.6039 25.8586 13.9644C26.1235 13.3249 26.1928 12.6211 26.0577 11.9422C25.9227 11.2633 25.5894 10.6396 25.0999 10.1501C24.6104 9.66064 23.9867 9.3273 23.3078 9.19225C22.6289 9.0572 21.9251 9.12652 21.2856 9.39142C20.6461 9.65633 20.0994 10.1049 19.7149 10.6805C19.3303 11.2561 19.125 11.9328 19.125 12.625C19.125 13.5533 19.4937 14.4435 20.1501 15.0999C20.8065 15.7563 21.6967 16.125 22.625 16.125ZM22.625 10.875C22.9711 10.875 23.3095 10.9776 23.5972 11.1699C23.885 11.3622 24.1093 11.6355 24.2418 11.9553C24.3742 12.2751 24.4089 12.6269 24.3414 12.9664C24.2739 13.3059 24.1072 13.6177 23.8624 13.8624C23.6177 14.1072 23.3059 14.2739 22.9664 14.3414C22.6269 14.4089 22.2751 14.3742 21.9553 14.2418C21.6355 14.1093 21.3622 13.885 21.1699 13.5972C20.9776 13.3095 20.875 12.9711 20.875 12.625C20.875 12.1609 21.0594 11.7158 21.3876 11.3876C21.7158 11.0594 22.1609 10.875 22.625 10.875ZM29.987 21.8869C29.9203 21.9175 29.1678 22.2456 27.8356 22.2456C26.3208 22.2456 24.0567 21.8213 21.1977 20.0581C20.7625 21.2935 20.1975 22.4792 19.5122 23.5953C20.7431 23.9743 21.901 24.5589 22.9367 25.3245C25.0225 26.9148 26.125 29.1789 26.125 31.875C26.125 32.1071 26.0328 32.3296 25.8687 32.4937C25.7046 32.6578 25.4821 32.75 25.25 32.75C25.0179 32.75 24.7954 32.6578 24.6313 32.4937C24.4672 32.3296 24.375 32.1071 24.375 31.875C24.375 27.3141 20.5808 25.6723 18.4534 25.1102C18.3933 25.1867 18.3309 25.2644 18.2686 25.3398C16.1205 27.943 13.4287 29.297 10.4341 29.297C10.093 29.2986 9.75201 29.2829 9.4125 29.25C9.18043 29.2268 8.96709 29.1124 8.81941 28.9318C8.67172 28.7513 8.60179 28.5196 8.625 28.2875C8.64821 28.0554 8.76265 27.8421 8.94315 27.6944C9.12366 27.5467 9.35543 27.4768 9.5875 27.5C12.4225 27.7822 14.8889 26.6808 16.9156 24.2188C18.2817 22.5628 19.2125 20.5427 19.6773 19.0781C15.4205 16.6008 12.7014 18.7095 12.6719 18.7325C12.5827 18.8086 12.4792 18.866 12.3675 18.9014C12.2557 18.9367 12.138 18.9492 12.0213 18.9382C11.9046 18.9272 11.7914 18.8928 11.6882 18.8372C11.5851 18.7815 11.4941 18.7057 11.4208 18.6142C11.3476 18.5228 11.2934 18.4175 11.2616 18.3047C11.2297 18.1919 11.2209 18.0739 11.2356 17.9576C11.2502 17.8413 11.2881 17.7291 11.347 17.6278C11.4058 17.5264 11.4844 17.4379 11.5781 17.3675C11.7422 17.2363 15.6491 14.1956 21.3683 18.0861C26.3416 21.4669 29.2356 20.3075 29.263 20.2944C29.3678 20.2449 29.4814 20.2167 29.5972 20.2115C29.713 20.2063 29.8287 20.2241 29.9376 20.264C30.0465 20.3039 30.1463 20.365 30.2313 20.4438C30.3164 20.5226 30.3849 20.6175 30.4329 20.723C30.481 20.8285 30.5076 20.9425 30.5112 21.0584C30.5148 21.1742 30.4953 21.2897 30.454 21.398C30.4126 21.5062 30.3501 21.6052 30.2701 21.6892C30.1901 21.7731 30.0943 21.8403 29.9881 21.8869H29.987Z" fill="white"/>
<defs>
<linearGradient id="paint0_linear_2009_5608" x1="20" y1="0.5" x2="20" y2="40.5" gradientUnits="userSpaceOnUse">
<stop stop-color="#00BC7D"/>
<stop offset="1" stop-color="#009966"/>
</linearGradient>
</defs>
</svg>
